<?xml version="1.0" encoding="utf-8" standalone="no"?>
<!DOCTYPE svg PUBLIC "-//W3C//DTD SVG 1.1//EN"
  "http://www.w3.org/Graphics/SVG/1.1/DTD/svg11.dtd">
<svg xmlns:xlink="http://www.w3.org/1999/xlink" width="504.566929pt" height="345.826772pt" viewBox="0 0 504.566929 345.826772" xmlns="http://www.w3.org/2000/svg" version="1.1">
 <metadata>
  <rdf:RDF xmlns:dc="http://purl.org/dc/elements/1.1/" xmlns:cc="http://creativecommons.org/ns#" xmlns:rdf="http://www.w3.org/1999/02/22-rdf-syntax-ns#">
   <cc:Work>
    <dc:type rdf:resource="http://purl.org/dc/dcmitype/StillImage"/>
    <dc:format>image/svg+xml</dc:format>
    <dc:creator>
     <cc:Agent>
      <dc:title>Matplotlib v3.11.0, https://matplotlib.org/</dc:title>
     </cc:Agent>
    </dc:creator>
   </cc:Work>
  </rdf:RDF>
 </metadata>
 <defs>
  <style type="text/css">*{stroke-linejoin: round; stroke-linecap: butt}</style>
 </defs>
 <g id="figure_1">
  <g id="patch_1">
   <path d="M 0 345.826772 
L 504.566929 345.826772 
L 504.566929 0 
L 0 0 
z
" style="fill: #ffffff"/>
  </g>
  <g id="axes_1">
   <g id="patch_2">
    <path d="M 50.765927 79.370079 
L 76.535433 79.370079 
L 76.535433 73.700787 
L 50.765927 73.700787 
z
" clip-path="url(#p94cc27de73)" style="fill: #aebac3"/>
   </g>
   <g id="patch_3">
    <path d="M 102.304939 79.370079 
L 128.074445 79.370079 
L 128.074445 73.700787 
L 102.304939 73.700787 
z
" clip-path="url(#p94cc27de73)" style="fill: #aebac3"/>
   </g>
   <g id="patch_4">
    <path d="M 48.188976 99.212598 
L 76.535433 99.212598 
L 76.535433 93.543307 
L 48.188976 93.543307 
z
" clip-path="url(#p94cc27de73)" style="fill: #aebac3"/>
   </g>
   <g id="patch_5">
    <path d="M 102.304939 99.212598 
L 133.228346 99.212598 
L 133.228346 93.543307 
L 102.304939 93.543307 
z
" clip-path="url(#p94cc27de73)" style="fill: #aebac3"/>
   </g>
   <g id="patch_6">
    <path d="M 50.765927 119.055118 
L 76.793128 119.055118 
L 76.793128 113.385827 
L 50.765927 113.385827 
z
" clip-path="url(#p94cc27de73)" style="fill: #aebac3"/>
   </g>
   <g id="patch_7">
    <path d="M 102.304939 119.055118 
L 128.074445 119.055118 
L 128.074445 113.385827 
L 102.304939 113.385827 
z
" clip-path="url(#p94cc27de73)" style="fill: #aebac3"/>
   </g>
   <g id="patch_8">
    <path d="M 169.511811 121.889764 
L 289.700787 121.889764 
Q 291.968504 121.889764 291.968504 119.622047 
L 291.968504 58.96063 
Q 291.968504 56.692913 289.700787 56.692913 
L 169.511811 56.692913 
Q 167.244094 56.692913 167.244094 58.96063 
L 167.244094 119.622047 
Q 167.244094 121.889764 169.511811 121.889764 
z
" clip-path="url(#p94cc27de73)" style="fill: #f3f7f9; stroke: #b8ccd8; stroke-width: 0.6; stroke-linejoin: miter"/>
   </g>
   <g id="patch_9">
    <path d="M 189.354331 45.354331 
L 269.858268 45.354331 
Q 272.125984 45.354331 272.125984 43.086614 
L 272.125984 30.614173 
Q 272.125984 28.346457 269.858268 28.346457 
L 189.354331 28.346457 
Q 187.086614 28.346457 187.086614 30.614173 
L 187.086614 43.086614 
Q 187.086614 45.354331 189.354331 45.354331 
z
" clip-path="url(#p94cc27de73)" style="fill: #ffffff; stroke: #cbd4d9; stroke-width: 0.6; stroke-linejoin: miter"/>
   </g>
   <g id="patch_10">
    <path d="M 330.80315 82.771654 
L 355.181102 82.771654 
Q 357.165354 82.771654 357.165354 80.787402 
L 357.165354 72.283465 
Q 357.165354 70.299213 355.181102 70.299213 
L 330.80315 70.299213 
Q 328.818898 70.299213 328.818898 72.283465 
L 328.818898 80.787402 
Q 328.818898 82.771654 330.80315 82.771654 
z
" clip-path="url(#p94cc27de73)" style="fill: #dfeaf0; stroke: #dfeaf0; stroke-width: 0.6; stroke-linejoin: miter"/>
   </g>
   <g id="patch_11">
    <path d="M 370.488189 82.771654 
L 394.866142 82.771654 
Q 396.850394 82.771654 396.850394 80.787402 
L 396.850394 72.283465 
Q 396.850394 70.299213 394.866142 70.299213 
L 370.488189 70.299213 
Q 368.503937 70.299213 368.503937 72.283465 
L 368.503937 80.787402 
Q 368.503937 82.771654 370.488189 82.771654 
z
" clip-path="url(#p94cc27de73)" style="fill: #dfeaf0; stroke: #dfeaf0; stroke-width: 0.6; stroke-linejoin: miter"/>
   </g>
   <g id="patch_12">
    <path d="M 330.80315 102.614173 
L 355.181102 102.614173 
Q 357.165354 102.614173 357.165354 100.629921 
L 357.165354 92.125984 
Q 357.165354 90.141732 355.181102 90.141732 
L 330.80315 90.141732 
Q 328.818898 90.141732 328.818898 92.125984 
L 328.818898 100.629921 
Q 328.818898 102.614173 330.80315 102.614173 
z
" clip-path="url(#p94cc27de73)" style="fill: #dfeaf0; stroke: #dfeaf0; stroke-width: 0.6; stroke-linejoin: miter"/>
   </g>
   <g id="patch_13">
    <path d="M 370.488189 102.614173 
L 394.866142 102.614173 
Q 396.850394 102.614173 396.850394 100.629921 
L 396.850394 92.125984 
Q 396.850394 90.141732 394.866142 90.141732 
L 370.488189 90.141732 
Q 368.503937 90.141732 368.503937 92.125984 
L 368.503937 100.629921 
Q 368.503937 102.614173 370.488189 102.614173 
z
" clip-path="url(#p94cc27de73)" style="fill: #e3efec; stroke: #e3efec; stroke-width: 0.6; stroke-linejoin: miter"/>
   </g>
   <g id="patch_14">
    <path d="M 330.80315 122.456693 
L 355.181102 122.456693 
Q 357.165354 122.456693 357.165354 120.472441 
L 357.165354 111.968504 
Q 357.165354 109.984252 355.181102 109.984252 
L 330.80315 109.984252 
Q 328.818898 109.984252 328.818898 111.968504 
L 328.818898 120.472441 
Q 328.818898 122.456693 330.80315 122.456693 
z
" clip-path="url(#p94cc27de73)" style="fill: #f4e8d9; stroke: #f4e8d9; stroke-width: 0.6; stroke-linejoin: miter"/>
   </g>
   <g id="patch_15">
    <path d="M 370.488189 122.456693 
L 394.866142 122.456693 
Q 396.850394 122.456693 396.850394 120.472441 
L 396.850394 111.968504 
Q 396.850394 109.984252 394.866142 109.984252 
L 370.488189 109.984252 
Q 368.503937 109.984252 368.503937 111.968504 
L 368.503937 120.472441 
Q 368.503937 122.456693 370.488189 122.456693 
z
" clip-path="url(#p94cc27de73)" style="fill: #f4e8d9; stroke: #f4e8d9; stroke-width: 0.6; stroke-linejoin: miter"/>
   </g>
   <g id="patch_16">
    <path d="M 433.133858 121.889764 
L 490.96063 121.889764 
Q 493.228346 121.889764 493.228346 119.622047 
L 493.228346 58.96063 
Q 493.228346 56.692913 490.96063 56.692913 
L 433.133858 56.692913 
Q 430.866142 56.692913 430.866142 58.96063 
L 430.866142 119.622047 
Q 430.866142 121.889764 433.133858 121.889764 
z
" clip-path="url(#p94cc27de73)" style="fill: #f3f7f9; stroke: #b8ccd8; stroke-width: 0.6; stroke-linejoin: miter"/>
   </g>
   <g id="patch_17">
    <path d="M 401.952756 155.905512 
L 490.96063 155.905512 
Q 493.228346 155.905512 493.228346 153.637795 
L 493.228346 141.165354 
Q 493.228346 138.897638 490.96063 138.897638 
L 401.952756 138.897638 
Q 399.685039 138.897638 399.685039 141.165354 
L 399.685039 153.637795 
Q 399.685039 155.905512 401.952756 155.905512 
z
" clip-path="url(#p94cc27de73)" style="fill: #faf6f0; stroke: #dbc9b0; stroke-width: 0.6; stroke-linejoin: miter"/>
   </g>
   <g id="flow-novel_in_known_gene-to-ambiguous_gene">
    <path d="M 75.11811 223.937008 
C 133.228346 223.937008 172.913386 219.685039 229.606299 219.685039 
L 229.606299 254.635397 
C 172.913386 254.635397 133.228346 258.887366 75.11811 258.887366 
z
" clip-path="url(#p94cc27de73)" style="fill: #549a94; opacity: 0.52"/>
   </g>
   <g id="flow-novel_in_known_gene-to-known">
    <path d="M 75.11811 258.887366 
C 133.228346 258.887366 172.913386 306.25898 229.606299 306.25898 
L 229.606299 306.937908 
C 172.913386 306.937908 133.228346 259.566294 75.11811 259.566294 
z
" clip-path="url(#p94cc27de73)" style="fill: #549a94; opacity: 0.52"/>
   </g>
   <g id="flow-novel_in_known_gene-to-new_locus">
    <path d="M 75.11811 259.566294 
C 133.228346 259.566294 172.913386 315.841498 229.606299 315.841498 
L 229.606299 316.062992 
C 172.913386 316.062992 133.228346 259.787788 75.11811 259.787788 
z
" clip-path="url(#p94cc27de73)" style="fill: #549a94; opacity: 0.52"/>
   </g>
   <g id="flow-new_locus-to-ambiguous_gene">
    <path d="M 75.11811 268.291725 
C 133.228346 268.291725 172.913386 254.635397 229.606299 254.635397 
L 229.606299 255.860838 
C 172.913386 255.860838 133.228346 269.517166 75.11811 269.517166 
z
" clip-path="url(#p94cc27de73)" style="fill: #ce9b63; opacity: 0.52"/>
   </g>
   <g id="flow-new_locus-to-novel_in_known_gene">
    <path d="M 75.11811 269.517166 
C 133.228346 269.517166 172.913386 264.364775 229.606299 264.364775 
L 229.606299 290.202568 
C 172.913386 290.202568 133.228346 295.354959 75.11811 295.354959 
z
" clip-path="url(#p94cc27de73)" style="fill: #ce9b63; opacity: 0.52"/>
   </g>
   <g id="flow-new_locus-to-known">
    <path d="M 75.11811 295.354959 
C 133.228346 295.354959 172.913386 306.937908 229.606299 306.937908 
L 229.606299 307.000504 
C 172.913386 307.000504 133.228346 295.417556 75.11811 295.417556 
z
" clip-path="url(#p94cc27de73)" style="fill: #ce9b63; opacity: 0.52"/>
   </g>
   <g id="flow-ambiguous_gene-to-novel_in_known_gene">
    <path d="M 75.11811 303.921493 
C 133.228346 303.921493 172.913386 290.202568 229.606299 290.202568 
L 229.606299 297.755043 
C 172.913386 297.755043 133.228346 311.473967 75.11811 311.473967 
z
" clip-path="url(#p94cc27de73)" style="fill: #9385ac; opacity: 0.52"/>
   </g>
   <g id="flow-ambiguous_gene-to-known">
    <path d="M 75.11811 311.473967 
C 133.228346 311.473967 172.913386 307.000504 229.606299 307.000504 
L 229.606299 307.337561 
C 172.913386 307.337561 133.228346 311.811024 75.11811 311.811024 
z
" clip-path="url(#p94cc27de73)" style="fill: #9385ac; opacity: 0.52"/>
   </g>
   <g id="line2d_1">
    <path d="M 76.535433 76.535433 
L 102.304939 76.535433 
" clip-path="url(#p94cc27de73)" style="fill: none; stroke: #84939e; stroke-width: 0.6; stroke-linecap: square"/>
   </g>
   <g id="line2d_2">
    <path d="M 76.535433 96.377953 
L 102.304939 96.377953 
" clip-path="url(#p94cc27de73)" style="fill: none; stroke: #84939e; stroke-width: 0.6; stroke-linecap: square"/>
   </g>
   <g id="line2d_3">
    <path d="M 48.188976 100.062992 
L 48.188976 92.692913 
" clip-path="url(#p94cc27de73)" style="fill: none; stroke: #346b8a; stroke-linecap: square"/>
   </g>
   <g id="line2d_4">
    <path d="M 133.228346 100.062992 
L 133.228346 92.692913 
" clip-path="url(#p94cc27de73)" style="fill: none; stroke: #346b8a; stroke-linecap: square"/>
   </g>
   <g id="line2d_5">
    <path d="M 76.793128 116.220472 
L 102.304939 116.220472 
" clip-path="url(#p94cc27de73)" style="fill: none; stroke: #84939e; stroke-width: 0.6; stroke-linecap: square"/>
   </g>
   <g id="line2d_6">
    <path d="M 76.793128 119.905512 
L 76.793128 112.535433 
" clip-path="url(#p94cc27de73)" style="fill: none; stroke: #ce9b63; stroke-linecap: square"/>
   </g>
   <g id="panel-a">
    <text style="font-weight: 700; font-size: 8px; font-family: 'DejaVu Sans'; text-anchor: start; fill: #20272d" x="11.338583" y="16.356353" transform="rotate(-0 11.338583 16.356353)">a</text>
   </g>
   <g id="text_1">
    <text style="font-weight: 700; font-size: 7px; font-family: 'DejaVu Sans'; text-anchor: start; fill: #20272d" x="25.511811" y="16.077447" transform="rotate(-0 25.511811 16.077447)">Reference-aware structural identity</text>
   </g>
   <g id="text_2">
    <text style="font-size: 7px; font-family: 'DejaVu Sans'; text-anchor: start; fill: #20272d" x="22.677165" y="44.451248" transform="rotate(-0 22.677165 44.451248)">Transcript models</text>
   </g>
   <g id="text_3">
    <text style="font-size: 6px; font-family: 'DejaVu Sans'; text-anchor: start; fill: #20272d" x="22.677165" y="57.223716" transform="rotate(-0 22.677165 57.223716)">GTF / GFF3</text>
   </g>
   <g id="text_4">
    <text style="font-size: 6px; font-family: 'DejaVu Sans'; text-anchor: start; fill: #20272d" x="17.007874" y="78.722621" transform="rotate(-0 17.007874 78.722621)">M1</text>
   </g>
   <g id="text_5">
    <text style="font-size: 6px; font-family: 'DejaVu Sans'; text-anchor: start; fill: #20272d" x="17.007874" y="98.604515" transform="rotate(-0 17.007874 98.604515)">M2</text>
   </g>
   <g id="text_6">
    <text style="font-size: 6px; font-family: 'DejaVu Sans'; text-anchor: start; fill: #20272d" x="17.007874" y="118.404379" transform="rotate(-0 17.007874 118.404379)">M3</text>
   </g>
   <g id="text_7">
    <text style="font-size: 6px; font-family: 'DejaVu Sans'; text-anchor: middle; fill: #20272d" x="76.793128" y="131.160284" transform="rotate(-0 76.793128 131.160284)">200 → 201</text>
   </g>
   <g id="patch_18">
    <path d="M 140.899053 96.377953 
Q 150.236203 96.377953 158.902534 96.377953 
" style="fill: none; stroke: #84939e; stroke-width: 0.6; stroke-linecap: round"/>
    <path d="M 156.502534 95.177953 
L 158.902534 96.377953 
L 156.502534 97.577953 
z
" style="fill: #84939e; stroke: #84939e; stroke-width: 0.6; stroke-linecap: round"/>
   </g>
   <g id="text_8">
    <text style="font-weight: 700; font-size: 7px; font-family: 'DejaVu Sans'; text-anchor: middle; fill: #20272d" x="229.606299" y="70.641184" transform="rotate(-0 229.606299 70.641184)">Canonical structure</text>
   </g>
   <g id="text_9">
    <text style="font-size: 6px; font-family: 'DejaVu Sans'; text-anchor: middle; fill: #20272d" x="229.606299" y="85.277672" transform="rotate(-0 229.606299 85.277672)">Reference · contig · strand</text>
   </g>
   <g id="text_10">
    <text style="font-size: 6.5px; font-family: 'DejaVu Sans'; text-anchor: middle; fill: #20272d" x="229.606299" y="100.218557" transform="rotate(-0 229.606299 100.218557)">SC: ordered introns</text>
   </g>
   <g id="text_11">
    <text style="font-size: 6.5px; font-family: 'DejaVu Sans'; text-anchor: middle; fill: #20272d" x="229.606299" y="113.541391" transform="rotate(-0 229.606299 113.541391)">TF: introns + exact ends</text>
   </g>
   <g id="text_12">
    <text style="font-size: 6.5px; font-family: 'DejaVu Sans'; text-anchor: middle; fill: #20272d" x="229.606299" y="39.273675" transform="rotate(-0 229.606299 39.273675)">Reference FASTA</text>
   </g>
   <g id="patch_19">
    <path d="M 229.606299 47.355746 
Q 229.606299 51.023593 229.606299 54.02062 
" style="fill: none; stroke: #84939e; stroke-width: 0.6; stroke-linecap: round"/>
    <path d="M 230.806299 51.62062 
L 229.606299 54.02062 
L 228.406299 51.62062 
z
" style="fill: #84939e; stroke: #84939e; stroke-width: 0.6; stroke-linecap: round"/>
   </g>
   <g id="patch_20">
    <path d="M 296.805603 96.377953 
Q 307.560158 96.377953 317.643893 96.377953 
" style="fill: none; stroke: #84939e; stroke-width: 0.6; stroke-linecap: round"/>
    <path d="M 315.243893 95.177953 
L 317.643893 96.377953 
L 315.243893 97.577953 
z
" style="fill: #84939e; stroke: #84939e; stroke-width: 0.6; stroke-linecap: round"/>
   </g>
   <g id="text_13">
    <text style="font-size: 5.8px; font-family: 'DejaVu Sans'; text-anchor: middle; fill: #20272d" x="308.976378" y="81.481188" transform="rotate(-0 308.976378 81.481188)">SHA-256</text>
   </g>
   <g id="text_14">
    <text style="font-size: 7px; font-family: 'DejaVu Sans'; text-anchor: middle; fill: #20272d" x="361.417323" y="40.76967" transform="rotate(-0 361.417323 40.76967)">Exact IDs</text>
   </g>
   <g id="text_15">
    <text style="font-size: 6.5px; font-family: 'DejaVu Sans'; text-anchor: middle; fill: #20272d" x="342.992126" y="57.641489" transform="rotate(-0 342.992126 57.641489)">SC</text>
   </g>
   <g id="text_16">
    <text style="font-size: 6.5px; font-family: 'DejaVu Sans'; text-anchor: middle; fill: #20272d" x="382.677165" y="57.645044" transform="rotate(-0 382.677165 57.645044)">TF</text>
   </g>
   <g id="text_17">
    <text style="font-size: 6.3px; font-family: 'DejaVu Sans'; text-anchor: middle; fill: #20272d" x="342.992126" y="78.828535" transform="rotate(-0 342.992126 78.828535)">SCa</text>
   </g>
   <g id="text_18">
    <text style="font-size: 6.3px; font-family: 'DejaVu Sans'; text-anchor: middle; fill: #20272d" x="382.677165" y="78.787191" transform="rotate(-0 382.677165 78.787191)">TFa</text>
   </g>
   <g id="text_19">
    <text style="font-size: 6.3px; font-family: 'DejaVu Sans'; text-anchor: middle; fill: #20272d" x="342.992126" y="98.671054" transform="rotate(-0 342.992126 98.671054)">SCa</text>
   </g>
   <g id="text_20">
    <text style="font-size: 6.3px; font-family: 'DejaVu Sans'; text-anchor: middle; fill: #20272d" x="382.677165" y="98.726672" transform="rotate(-0 382.677165 98.726672)">TFb</text>
   </g>
   <g id="text_21">
    <text style="font-size: 6.3px; font-family: 'DejaVu Sans'; text-anchor: middle; fill: #20272d" x="342.992126" y="118.569191" transform="rotate(-0 342.992126 118.569191)">SCb</text>
   </g>
   <g id="text_22">
    <text style="font-size: 6.3px; font-family: 'DejaVu Sans'; text-anchor: middle; fill: #20272d" x="382.677165" y="118.47223" transform="rotate(-0 382.677165 118.47223)">TFc</text>
   </g>
   <g id="patch_21">
    <path d="M 404.5211 96.377953 
Q 413.858251 96.377953 422.524581 96.377953 
" style="fill: none; stroke: #84939e; stroke-width: 0.6; stroke-linecap: round"/>
    <path d="M 420.124581 95.177953 
L 422.524581 96.377953 
L 420.124581 97.577953 
z
" style="fill: #84939e; stroke: #84939e; stroke-width: 0.6; stroke-linecap: round"/>
   </g>
   <g id="text_23">
    <text style="font-weight: 700; font-size: 7px; font-family: 'DejaVu Sans'; text-anchor: middle; fill: #20272d" x="462.047244" y="72.77036" transform="rotate(-0 462.047244 72.77036)">Registry</text>
   </g>
   <g id="text_24">
    <text style="font-size: 6.5px; font-family: 'DejaVu Sans'; text-anchor: middle; fill: #20272d" x="462.047244" y="89.667609" transform="rotate(-0 462.047244 89.667609)">Mappings</text>
   </g>
   <g id="text_25">
    <text style="font-size: 6.5px; font-family: 'DejaVu Sans'; text-anchor: middle; fill: #20272d" x="462.047244" y="102.423515" transform="rotate(-0 462.047244 102.423515)">Catalog</text>
   </g>
   <g id="text_26">
    <text style="font-size: 5.8px; font-family: 'DejaVu Sans'; text-anchor: middle; fill: #20272d" x="462.047244" y="115.548139" transform="rotate(-0 462.047244 115.548139)">Classifications</text>
   </g>
   <g id="text_27">
    <text style="font-size: 6.5px; font-family: 'DejaVu Sans'; text-anchor: middle; fill: #20272d" x="446.456693" y="149.824856" transform="rotate(-0 446.456693 149.824856)">Annotation versions</text>
   </g>
   <g id="patch_22">
    <path d="M 462.047244 136.900375 
Q 462.047244 130.3937 462.047244 124.557846 
" style="fill: none; stroke-dasharray: 1.2,1.2; stroke-dashoffset: 0; stroke: #84939e; stroke-width: 0.6; stroke-linecap: round"/>
    <path d="M 460.847244 126.957846 
L 462.047244 124.557846 
L 463.247244 126.957846 
z
" style="fill: #84939e; stroke-dasharray: 1.2,1.2; stroke-dashoffset: 0; stroke: #84939e; stroke-width: 0.6; stroke-linecap: round"/>
   </g>
   <g id="panel-b">
    <text style="font-weight: 700; font-size: 8px; font-family: 'DejaVu Sans'; text-anchor: start; fill: #20272d" x="11.338583" y="184.399823" transform="rotate(-0 11.338583 184.399823)">b</text>
   </g>
   <g id="text_28">
    <text style="font-weight: 700; font-size: 7px; font-family: 'DejaVu Sans'; text-anchor: start; fill: #20272d" x="25.511811" y="183.321542" transform="rotate(-0 25.511811 183.321542)">Annotation changes, identities persist</text>
   </g>
   <g id="b-classification-summary">
    <text style="font-size: 6.1px; font-family: 'DejaVu Sans'; text-anchor: start; fill: #20272d" x="14.173228" y="198.691093" transform="rotate(-0 14.173228 198.691093)">Changed observations only: 29,435 / 538,804 (5.463%)</text>
   </g>
   <g id="text_29">
    <text style="font-weight: 700; font-size: 6.5px; font-family: 'DejaVu Sans'; text-anchor: middle; fill: #20272d" x="72.566929" y="213.547001" transform="rotate(-0 72.566929 213.547001)">v29</text>
   </g>
   <g id="text_30">
    <text style="font-weight: 700; font-size: 6.5px; font-family: 'DejaVu Sans'; text-anchor: middle; fill: #20272d" x="231.874016" y="213.543954" transform="rotate(-0 231.874016 213.543954)">v49</text>
   </g>
   <g id="patch_23">
    <path d="M 70.866142 259.787788 
L 75.11811 259.787788 
L 75.11811 223.937008 
L 70.866142 223.937008 
z
" clip-path="url(#p94cc27de73)" style="fill: #549a94"/>
   </g>
   <g id="b-left-novel_in_known_gene">
    <text style="font-size: 6px; font-family: 'DejaVu Sans'; fill: #20272d" transform="translate(25.265736 240.218023)">Novel in gene</text>
    <text style="font-size: 6px; font-family: 'DejaVu Sans'; fill: #20272d" transform="translate(45.619798 247.04021)">14,891</text>
   </g>
   <g id="patch_24">
    <path d="M 70.866142 295.417556 
L 75.11811 295.417556 
L 75.11811 268.291725 
L 70.866142 268.291725 
z
" clip-path="url(#p94cc27de73)" style="fill: #ce9b63"/>
   </g>
   <g id="b-left-new_locus">
    <text style="font-size: 6px; font-family: 'DejaVu Sans'; fill: #20272d" transform="translate(36.054486 280.791515)">New locus</text>
    <text style="font-size: 6px; font-family: 'DejaVu Sans'; fill: #20272d" transform="translate(45.619798 287.032453)">11,267</text>
   </g>
   <g id="patch_25">
    <path d="M 70.866142 311.811024 
L 75.11811 311.811024 
L 75.11811 303.921493 
L 70.866142 303.921493 
z
" clip-path="url(#p94cc27de73)" style="fill: #9385ac"/>
   </g>
   <g id="b-left-ambiguous_gene">
    <text style="font-size: 6px; font-family: 'DejaVu Sans'; fill: #20272d" transform="translate(32.978548 306.221883)">Ambiguous</text>
    <text style="font-size: 6px; font-family: 'DejaVu Sans'; fill: #20272d" transform="translate(49.437298 313.044071)">3,277</text>
   </g>
   <g id="patch_26">
    <path d="M 229.606299 255.860838 
L 233.858268 255.860838 
L 233.858268 219.685039 
L 229.606299 219.685039 
z
" clip-path="url(#p94cc27de73)" style="fill: #9385ac"/>
   </g>
   <g id="b-right-ambiguous_gene">
    <text style="font-size: 6px; font-family: 'DejaVu Sans'; fill: #20272d" transform="translate(238.110236 236.128564)">Ambiguous</text>
    <text style="font-size: 6px; font-family: 'DejaVu Sans'; fill: #20272d" transform="translate(238.110236 242.950751)">15,026</text>
   </g>
   <g id="patch_27">
    <path d="M 229.606299 297.755043 
L 233.858268 297.755043 
L 233.858268 264.364775 
L 229.606299 264.364775 
z
" clip-path="url(#p94cc27de73)" style="fill: #549a94"/>
   </g>
   <g id="b-right-novel_in_known_gene">
    <text style="font-size: 6px; font-family: 'DejaVu Sans'; fill: #20272d" transform="translate(238.110236 279.415534)">Novel in gene</text>
    <text style="font-size: 6px; font-family: 'DejaVu Sans'; fill: #20272d" transform="translate(238.110236 286.237722)">13,869</text>
   </g>
   <g id="patch_28">
    <path d="M 229.606299 307.337561 
L 233.858268 307.337561 
L 233.858268 306.25898 
L 229.606299 306.25898 
z
" clip-path="url(#p94cc27de73)" style="fill: #346b8a"/>
   </g>
   <g id="b-right-known">
    <text style="font-size: 6px; font-family: 'DejaVu Sans'; text-anchor: start; fill: #20272d" x="238.110236" y="308.982177" transform="rotate(-0 238.110236 308.982177)">Known 448</text>
   </g>
   <g id="patch_29">
    <path d="M 229.606299 316.062992 
L 233.858268 316.062992 
L 233.858268 315.841498 
L 229.606299 315.841498 
z
" clip-path="url(#p94cc27de73)" style="fill: #ce9b63"/>
   </g>
   <g id="b-right-new_locus">
    <text style="font-size: 6px; font-family: 'DejaVu Sans'; text-anchor: start; fill: #20272d" x="238.110236" y="318.18912" transform="rotate(-0 238.110236 318.18912)">New locus 92</text>
   </g>
   <g id="b-exact-id-changes">
    <text style="font-size: 6.5px; font-family: 'DejaVu Sans'; text-anchor: start; fill: #20272d" x="14.173228" y="334.86446" transform="rotate(-0 14.173228 334.86446)">Exact form IDs changed: 0</text>
   </g>
   <g id="panel-c">
    <text style="font-weight: 700; font-size: 8px; font-family: 'DejaVu Sans'; text-anchor: start; fill: #20272d" x="325.984252" y="183.600448" transform="rotate(-0 325.984252 183.600448)">c</text>
   </g>
   <g id="text_31">
    <text style="font-weight: 700; font-size: 7px; font-family: 'DejaVu Sans'; text-anchor: start; fill: #20272d" x="340.15748" y="184.02701" transform="rotate(-0 340.15748 184.02701)">Cohort matrix</text>
   </g>
   <g id="text_32">
    <text style="font-size: 6.5px; font-family: 'DejaVu Sans'; text-anchor: start; fill: #20272d" x="354.330709" y="205.888082" transform="rotate(-0 354.330709 205.888082)">6 sample rows</text>
   </g>
   <g id="c-columns-0">
    <text style="font-size: 5.8px; font-family: 'DejaVu Sans'; text-anchor: middle; fill: #20272d" x="371.338583" y="224.428957" transform="rotate(-0 371.338583 224.428957)">467,819</text>
   </g>
   <g id="c-columns-1">
    <text style="font-size: 5.8px; font-family: 'DejaVu Sans'; text-anchor: middle; fill: #20272d" x="404.409449" y="224.415655" transform="rotate(-0 404.409449 224.415655)">467,908</text>
   </g>
   <g id="c-columns-2">
    <text style="font-size: 5.8px; font-family: 'DejaVu Sans'; text-anchor: middle; fill: #20272d" x="437.480315" y="237.643292" transform="rotate(-0 437.480315 237.643292)">379,407</text>
   </g>
   <g id="c-columns-3">
    <text style="font-size: 5.8px; font-family: 'DejaVu Sans'; text-anchor: middle; fill: #20272d" x="470.551181" y="239.941288" transform="rotate(-0 470.551181 239.941288)">364,032</text>
   </g>
   <g id="b-flow-count-novel_in_known_gene-to-ambiguous_gene">
    <text style="font-size: 6px; font-family: 'DejaVu Sans'; text-anchor: middle; fill: #20272d" x="152.893701" y="241.12464" transform="rotate(-0 152.893701 241.12464)">14,517</text>
   </g>
   <g id="b-flow-count-new_locus-to-novel_in_known_gene">
    <text style="font-size: 6px; font-family: 'DejaVu Sans'; text-anchor: middle; fill: #20272d" x="152.893701" y="281.73768" transform="rotate(-0 152.893701 281.73768)">10,732</text>
   </g>
  </g>
  <g id="axes_2">
   <g id="patch_30">
    <path d="M 351.496063 297.637795 
L 490.393701 297.637795 
L 490.393701 215.433071 
L 351.496063 215.433071 
L 351.496063 297.637795 
z
" style="fill: none"/>
   </g>
   <g id="matplotlib.axis_1">
    <g id="xtick_1">
     <g id="line2d_7"/>
     <g id="text_33">
      <text style="font-size: 5.8px; font-family: 'DejaVu Sans'; fill: #20272d" transform="translate(364.76238 306.625002)">TxID</text>
      <text style="font-size: 5.8px; font-family: 'DejaVu Sans'; fill: #20272d" transform="translate(355.696708 313.586588)">exact form</text>
     </g>
    </g>
    <g id="xtick_2">
     <g id="line2d_8"/>
     <g id="text_34">
      <text style="font-size: 5.8px; font-family: 'DejaVu Sans'; fill: #20272d" transform="translate(392.794496 306.625455)">isoSeQL</text>
      <text style="font-size: 5.8px; font-family: 'DejaVu Sans'; fill: #20272d" transform="translate(388.555058 313.587041)">exact ends</text>
     </g>
    </g>
    <g id="xtick_3">
     <g id="line2d_9"/>
     <g id="text_35">
      <text style="font-size: 5.8px; font-family: 'DejaVu Sans'; fill: #20272d" transform="translate(420.916784 306.625455)">gffcompare</text>
      <text style="font-size: 5.8px; font-family: 'DejaVu Sans'; fill: #20272d" transform="translate(425.61569 313.587041)">tracking</text>
     </g>
    </g>
    <g id="xtick_4">
     <g id="line2d_10"/>
     <g id="text_36">
      <text style="font-size: 5.8px; font-family: 'DejaVu Sans'; fill: #20272d" transform="translate(458.936228 306.625455)">isoSeQL</text>
      <text style="font-size: 5.8px; font-family: 'DejaVu Sans'; fill: #20272d" transform="translate(457.920322 313.586588)">common</text>
      <text style="font-size: 5.8px; font-family: 'DejaVu Sans'; fill: #20272d" transform="translate(458.920369 320.548174)">junction</text>
     </g>
    </g>
   </g>
   <g id="matplotlib.axis_2">
    <g id="ytick_1">
     <g id="line2d_11">
      <defs>
       <path id="m8039631a77" d="M 0 0 
L -2 0 
" style="stroke: #20272d; stroke-width: 0.5"/>
      </defs>
      <g>
       <use xlink:href="#m8039631a77" x="351.496063" y="297.637795" style="fill: #20272d; stroke: #20272d; stroke-width: 0.5"/>
      </g>
     </g>
     <g id="text_37">
      <text style="font-size: 5.8px; font-family: 'DejaVu Sans'; text-anchor: end; fill: #20272d" x="347.496063" y="299.841116" transform="rotate(-0 347.496063 299.841116)">0</text>
     </g>
    </g>
    <g id="ytick_2">
     <g id="line2d_12">
      <g>
       <use xlink:href="#m8039631a77" x="351.496063" y="260.272011" style="fill: #20272d; stroke: #20272d; stroke-width: 0.5"/>
      </g>
     </g>
     <g id="text_38">
      <text style="font-size: 5.8px; font-family: 'DejaVu Sans'; text-anchor: end; fill: #20272d" x="347.496063" y="262.475558" transform="rotate(-0 347.496063 262.475558)">250k</text>
     </g>
    </g>
    <g id="ytick_3">
     <g id="line2d_13">
      <g>
       <use xlink:href="#m8039631a77" x="351.496063" y="222.906228" style="fill: #20272d; stroke: #20272d; stroke-width: 0.5"/>
      </g>
     </g>
     <g id="text_39">
      <text style="font-size: 5.8px; font-family: 'DejaVu Sans'; text-anchor: end; fill: #20272d" x="347.496063" y="225.109775" transform="rotate(-0 347.496063 225.109775)">500k</text>
     </g>
    </g>
    <g id="text_40">
     <text style="font-size: 6.5px; font-family: 'DejaVu Sans'; text-anchor: middle; fill: #20272d" x="328.505227" y="256.535433" transform="rotate(-90 328.505227 256.535433)">Matrix columns (n)</text>
    </g>
   </g>
   <g id="patch_31">
    <path d="M 362.244094 297.637795 
L 380.433071 297.637795 
L 380.433071 227.716101 
L 362.244094 227.716101 
z
" clip-path="url(#pb5d22bc74b)" style="fill: #346b8a"/>
   </g>
   <g id="patch_32">
    <path d="M 395.314961 297.637795 
L 413.503937 297.637795 
L 413.503937 227.702799 
L 395.314961 227.702799 
z
" clip-path="url(#pb5d22bc74b)" style="fill: #a8b5be"/>
   </g>
   <g id="patch_33">
    <path d="M 428.385827 297.637795 
L 446.574803 297.637795 
L 446.574803 240.930436 
L 428.385827 240.930436 
z
" clip-path="url(#pb5d22bc74b)" style="fill: #a8b5be"/>
   </g>
   <g id="patch_34">
    <path d="M 461.456693 297.637795 
L 479.645669 297.637795 
L 479.645669 243.228431 
L 461.456693 243.228431 
z
" clip-path="url(#pb5d22bc74b)" style="fill: #a8b5be"/>
   </g>
   <g id="patch_35">
    <path d="M 351.496063 297.637795 
L 351.496063 215.433071 
" style="fill: none; stroke: #20272d; stroke-width: 0.5; stroke-linejoin: miter; stroke-linecap: square"/>
   </g>
   <g id="patch_36">
    <path d="M 351.496063 297.637795 
L 490.393701 297.637795 
" style="fill: none; stroke: #20272d; stroke-width: 0.5; stroke-linejoin: miter; stroke-linecap: square"/>
   </g>
  </g>
 </g>
 <defs>
  <clipPath id="p94cc27de73">
   <rect x="0" y="0" width="504.566929" height="345.826772"/>
  </clipPath>
  <clipPath id="pb5d22bc74b">
   <rect x="351.496063" y="215.433071" width="138.897638" height="82.204724"/>
  </clipPath>
 </defs>
</svg>
